<svg width="32" height="32" viewBox="0 0 32 32" fill="none" xmlns="http://www.w3.org/2000/svg">
<path d="M28.7954 0.175812H9.80399C9.6101 0.175812 9.45274 0.333172 9.45274 0.527062V13.1851H3.16888C2.97499 13.1851 2.81763 13.3424 2.81763 13.5363V31.4371C2.81763 31.6313 2.97499 31.7883 3.16888 31.7883H14.9902H28.7957C28.99 31.7883 29.147 31.6313 29.147 31.4371V0.527062C29.1466 0.333172 28.9896 0.175812 28.7954 0.175812ZM3.52013 13.8876H14.6389V31.0858H3.52013V13.8876ZM28.4441 31.0858H15.3414V13.5363C15.3414 13.3424 15.1841 13.1851 14.9902 13.1851H10.1552V0.878312H28.4445V31.0858H28.4441Z" fill="#E6A03B"/>
<path d="M13.3194 19.497H9.96038C9.76649 19.497 9.60913 19.34 9.60913 19.1458V16.811C9.60913 16.6168 9.76649 16.4598 9.96038 16.4598H13.3194C13.5133 16.4598 13.6706 16.6168 13.6706 16.811V19.1454C13.6706 19.34 13.5136 19.497 13.3194 19.497ZM10.3116 18.7945H12.9681V17.1623H10.3116V18.7945Z" fill="#E6A03B"/>
<path d="M13.3194 23.8599H9.96038C9.76649 23.8599 9.60913 23.7029 9.60913 23.5087V21.1742C9.60913 20.98 9.76649 20.823 9.96038 20.823H13.3194C13.5133 20.823 13.6706 20.98 13.6706 21.1742V23.5087C13.6706 23.7025 13.5136 23.8599 13.3194 23.8599ZM10.3116 23.1574H12.9681V21.5255H10.3116V23.1574Z" fill="#E6A03B"/>
<path d="M13.3194 28.2228H9.96038C9.76649 28.2228 9.60913 28.0657 9.60913 27.8715V25.5371C9.60913 25.3429 9.76649 25.1859 9.96038 25.1859H13.3194C13.5133 25.1859 13.6706 25.3429 13.6706 25.5371V27.8715C13.6706 28.0654 13.5136 28.2228 13.3194 28.2228ZM10.3116 27.5203H12.9681V25.8884H10.3116V27.5203Z" fill="#E6A03B"/>
<path d="M8.19854 19.497H4.83953C4.64564 19.497 4.48828 19.34 4.48828 19.1458V16.811C4.48828 16.6168 4.64564 16.4598 4.83953 16.4598H8.19854C8.39243 16.4598 8.54979 16.6168 8.54979 16.811V19.1454C8.54979 19.34 8.39243 19.497 8.19854 19.497ZM5.19078 18.7945H7.84729V17.1623H5.19078V18.7945Z" fill="#E6A03B"/>
<path d="M8.19854 23.8599H4.83953C4.64564 23.8599 4.48828 23.7029 4.48828 23.5087V21.1742C4.48828 20.98 4.64564 20.823 4.83953 20.823H8.19854C8.39243 20.823 8.54979 20.98 8.54979 21.1742V23.5087C8.54979 23.7025 8.39243 23.8599 8.19854 23.8599ZM5.19078 23.1574H7.84729V21.5255H5.19078V23.1574Z" fill="#E6A03B"/>
<path d="M8.19854 28.2228H4.83953C4.64564 28.2228 4.48828 28.0657 4.48828 27.8715V25.5371C4.48828 25.3429 4.64564 25.1859 4.83953 25.1859H8.19854C8.39243 25.1859 8.54979 25.3429 8.54979 25.5371V27.8715C8.54979 28.0654 8.39243 28.2228 8.19854 28.2228ZM5.19078 27.5203H7.84729V25.8884H5.19078V27.5203Z" fill="#E6A03B"/>
<path d="M20.9236 10.7737H17.5646C17.3704 10.7737 17.2134 10.6164 17.2134 10.4225V8.08773C17.2134 7.89384 17.3704 7.73648 17.5646 7.73648H20.9236C21.1179 7.73648 21.2749 7.89384 21.2749 8.08773V10.4225C21.2749 10.6167 21.1179 10.7737 20.9236 10.7737ZM17.9159 10.0712H20.5724V8.43898H17.9159V10.0712Z" fill="#E6A03B"/>
<path d="M20.9236 15.1366H17.5646C17.3704 15.1366 17.2134 14.9792 17.2134 14.7853V12.4506C17.2134 12.2567 17.3704 12.0993 17.5646 12.0993H20.9236C21.1179 12.0993 21.2749 12.2567 21.2749 12.4506V14.7853C21.2749 14.9796 21.1179 15.1366 20.9236 15.1366ZM17.9159 14.4341H20.5724V12.8018H17.9159V14.4341Z" fill="#E6A03B"/>
<path d="M20.9236 19.4998H17.5646C17.3704 19.4998 17.2134 19.3428 17.2134 19.1486V16.8138C17.2134 16.6196 17.3704 16.4626 17.5646 16.4626H20.9236C21.1179 16.4626 21.2749 16.6196 21.2749 16.8138V19.1486C21.2749 19.3425 21.1179 19.4998 20.9236 19.4998ZM17.9159 18.7973H20.5724V17.1651H17.9159V18.7973Z" fill="#E6A03B"/>
<path d="M15.8025 10.7737H12.4435C12.2496 10.7737 12.0923 10.6164 12.0923 10.4225V8.08773C12.0923 7.89384 12.2496 7.73648 12.4435 7.73648H15.8025C15.9964 7.73648 16.1538 7.89384 16.1538 8.08773V10.4225C16.1538 10.6167 15.9964 10.7737 15.8025 10.7737ZM12.7948 10.0712H15.4513V8.43898H12.7948V10.0712Z" fill="#E6A03B"/>
<path d="M20.9236 23.8599H17.5646C17.3704 23.8599 17.2134 23.7029 17.2134 23.5087V21.1742C17.2134 20.98 17.3704 20.823 17.5646 20.823H20.9236C21.1179 20.823 21.2749 20.98 21.2749 21.1742V23.5087C21.2749 23.7025 21.1179 23.8599 20.9236 23.8599ZM17.9159 23.1574H20.5724V21.5255H17.9159V23.1574Z" fill="#E6A03B"/>
<path d="M26.1561 10.7737H22.7971C22.6028 10.7737 22.4458 10.6164 22.4458 10.4225V8.08773C22.4458 7.89384 22.6028 7.73648 22.7971 7.73648H26.1561C26.3503 7.73648 26.5073 7.89384 26.5073 8.08773V10.4225C26.5073 10.6167 26.3503 10.7737 26.1561 10.7737ZM23.1479 10.0712H25.8045V8.43898H23.1479V10.0712Z" fill="#E6A03B"/>
<path d="M26.1561 15.1366H22.7971C22.6028 15.1366 22.4458 14.9792 22.4458 14.7853V12.4506C22.4458 12.2567 22.6028 12.0993 22.7971 12.0993H26.1561C26.3503 12.0993 26.5073 12.2567 26.5073 12.4506V14.7853C26.5073 14.9796 26.3503 15.1366 26.1561 15.1366ZM23.1479 14.4341H25.8045V12.8018H23.1479V14.4341Z" fill="#E6A03B"/>
<path d="M26.1561 19.4998H22.7971C22.6028 19.4998 22.4458 19.3428 22.4458 19.1486V16.8138C22.4458 16.6196 22.6028 16.4626 22.7971 16.4626H26.1561C26.3503 16.4626 26.5073 16.6196 26.5073 16.8138V19.1486C26.5073 19.3425 26.3503 19.4998 26.1561 19.4998ZM23.1479 18.7973H25.8045V17.1651H23.1479V18.7973Z" fill="#E6A03B"/>
<path d="M26.1561 23.8599H22.7971C22.6028 23.8599 22.4458 23.7029 22.4458 23.5087V21.1742C22.4458 20.98 22.6028 20.823 22.7971 20.823H26.1561C26.3503 20.823 26.5073 20.98 26.5073 21.1742V23.5087C26.5073 23.7025 26.3503 23.8599 26.1561 23.8599ZM23.1479 23.1574H25.8045V21.5255H23.1479V23.1574Z" fill="#E6A03B"/>
<path d="M20.9236 28.2203H17.5646C17.3704 28.2203 17.2134 28.0633 17.2134 27.8691V25.5343C17.2134 25.3401 17.3704 25.183 17.5646 25.183H20.9236C21.1179 25.183 21.2749 25.3401 21.2749 25.5343V27.8691C21.2749 28.0633 21.1179 28.2203 20.9236 28.2203ZM17.9159 27.5178H20.5724V25.8855H17.9159V27.5178Z" fill="#E6A03B"/>
<path d="M26.1561 28.2203H22.7971C22.6028 28.2203 22.4458 28.0633 22.4458 27.8691V25.5343C22.4458 25.3401 22.6028 25.183 22.7971 25.183H26.1561C26.3503 25.183 26.5073 25.3401 26.5073 25.5343V27.8691C26.5073 28.0633 26.3503 28.2203 26.1561 28.2203ZM23.1479 27.5178H25.8045V25.8855H23.1479V27.5178Z" fill="#E6A03B"/>
<path d="M20.9236 6.41366H17.5646C17.3704 6.41366 17.2134 6.2563 17.2134 6.06241V3.72765C17.2134 3.53376 17.3704 3.3764 17.5646 3.3764H20.9236C21.1179 3.3764 21.2749 3.53376 21.2749 3.72765V6.06241C21.2749 6.2563 21.1179 6.41366 20.9236 6.41366ZM17.9159 5.71116H20.5724V4.0789H17.9159V5.71116Z" fill="#E6A03B"/>
<path d="M15.8025 6.41366H12.4435C12.2496 6.41366 12.0923 6.2563 12.0923 6.06241V3.72765C12.0923 3.53376 12.2496 3.3764 12.4435 3.3764H15.8025C15.9964 3.3764 16.1538 3.53376 16.1538 3.72765V6.06241C16.1538 6.2563 15.9964 6.41366 15.8025 6.41366ZM12.7948 5.71116H15.4513V4.0789H12.7948V5.71116Z" fill="#E6A03B"/>
<path d="M26.1561 6.41366H22.7971C22.6028 6.41366 22.4458 6.2563 22.4458 6.06241V3.72765C22.4458 3.53376 22.6028 3.3764 22.7971 3.3764H26.1561C26.3503 3.3764 26.5073 3.53376 26.5073 3.72765V6.06241C26.5073 6.2563 26.3503 6.41366 26.1561 6.41366ZM23.1479 5.71116H25.8045V4.0789H23.1479V5.71116Z" fill="#E6A03B"/>
</svg>
