<svg width="36" height="36" viewBox="0 0 36 36" fill="none" xmlns="http://www.w3.org/2000/svg">
<path d="M32.8425 6.59815H3.11723C1.50736 6.59815 0.197815 7.9077 0.197815 9.51717V26.4421C0.197815 28.052 1.50736 29.3615 3.11723 29.3615H32.8429C34.4527 29.3615 35.7623 28.052 35.7623 26.4421V9.51717C35.7619 7.9077 34.4523 6.59815 32.8425 6.59815ZM3.11723 7.77058H32.8429C33.8062 7.77058 34.5898 8.55417 34.5898 9.51756V22.5913H1.37024V9.51717C1.37024 8.55378 2.15384 7.77058 3.11723 7.77058ZM32.8425 28.1891H3.11723C2.15384 28.1891 1.37024 27.4055 1.37024 26.4421V23.7637H34.5894V26.4421C34.5894 27.4055 33.8059 28.1891 32.8425 28.1891Z" fill="white"/>
<path d="M15.784 19.5759C14.4808 19.5759 13.2688 19.0298 12.4121 18.0834C11.5554 19.0298 10.3435 19.5759 9.04025 19.5759C6.52429 19.5759 4.47699 17.529 4.47699 15.0126C4.47699 12.4966 6.5239 10.4497 9.04025 10.4497C10.3435 10.4497 11.555 10.9958 12.4121 11.9422C13.2688 10.9958 14.4804 10.4497 15.784 10.4497C18.3 10.4497 20.3469 12.4966 20.3469 15.0126C20.3469 17.529 18.3 19.5759 15.784 19.5759ZM12.4121 16.0076L12.9092 16.8038C13.5348 17.8056 14.6092 18.4034 15.7836 18.4034C17.6531 18.4034 19.174 16.8825 19.174 15.0126C19.174 13.1431 17.6531 11.6222 15.7836 11.6222C14.6092 11.6222 13.5348 12.22 12.9092 13.2218L12.4121 14.018L11.915 13.2222C11.2895 12.2204 10.2147 11.6226 9.04025 11.6226C7.17077 11.6226 5.64981 13.1435 5.64981 15.013C5.64981 16.8829 7.17077 18.4038 9.04025 18.4038C10.2143 18.4038 11.2891 17.806 11.915 16.8038L12.4121 16.0076Z" fill="white"/>
</svg>
