<svg width="36" height="36" viewBox="0 0 36 36" fill="none" xmlns="http://www.w3.org/2000/svg">
<g clip-path="url(#clip0_0_151)">
<path d="M14.4321 21.8646H2.34549C1.16121 21.8646 0.197815 20.9016 0.197815 19.717V2.34549C0.197815 1.16121 1.16121 0.197815 2.34549 0.197815H14.4321C15.6164 0.197815 16.5798 1.16121 16.5798 2.34549V19.7174C16.5798 20.9016 15.6164 21.8646 14.4321 21.8646ZM2.34549 1.77844C2.03292 1.77844 1.77844 2.03292 1.77844 2.34549V19.7174C1.77844 20.0299 2.03292 20.2844 2.34549 20.2844H14.4321C14.7447 20.2844 14.9992 20.0299 14.9992 19.7174V2.34549C14.9992 2.03292 14.7447 1.77844 14.4321 1.77844H2.34549Z" fill="white"/>
<path d="M14.4321 35.7619H2.34549C1.16121 35.7619 0.197815 34.7989 0.197815 33.6142V27.5343C0.197815 26.35 1.16121 25.3867 2.34549 25.3867H14.4321C15.6164 25.3867 16.5798 26.35 16.5798 27.5343V33.6146C16.5798 34.7989 15.6164 35.7619 14.4321 35.7619ZM2.34549 26.9673C2.03292 26.9673 1.77844 27.2218 1.77844 27.5343V33.6146C1.77844 33.9268 2.03292 34.1813 2.34549 34.1813H14.4321C14.7447 34.1813 14.9992 33.9268 14.9992 33.6142V27.5343C14.9992 27.2218 14.7447 26.9673 14.4321 26.9673H2.34549Z" fill="white"/>
<path d="M33.6142 35.7619H21.5276C20.3433 35.7619 19.3799 34.7985 19.3799 33.6142V16.2427C19.3799 15.0585 20.3433 14.0955 21.5276 14.0955H33.6146C34.7989 14.0955 35.7623 15.0589 35.7623 16.2427V33.6146C35.7619 34.7989 34.7989 35.7619 33.6142 35.7619ZM21.5276 15.6757C21.215 15.6757 20.9605 15.9302 20.9605 16.2423V33.6142C20.9605 33.9268 21.215 34.1813 21.5276 34.1813H33.6146C33.9268 34.1813 34.1813 33.9268 34.1813 33.6142V16.2427C34.1813 15.9302 33.9268 15.6761 33.6142 15.6761L21.5276 15.6757Z" fill="white"/>
<path d="M33.6142 10.573H21.5276C20.3433 10.573 19.3799 9.60965 19.3799 8.42536V2.34549C19.3799 1.16121 20.3429 0.197815 21.5276 0.197815H33.6146C34.7989 0.197815 35.7619 1.16121 35.7619 2.34549V8.42576C35.7619 9.60965 34.7989 10.573 33.6142 10.573ZM21.5276 1.77844C21.215 1.77844 20.9605 2.03292 20.9605 2.34549V8.42576C20.9605 8.73833 21.215 8.99281 21.5276 8.99281H33.6146C33.9272 8.99281 34.1816 8.73833 34.1816 8.42576V2.34549C34.1812 2.03292 33.9268 1.77844 33.6142 1.77844H21.5276Z" fill="white"/>
</g>
<defs>
<clipPath id="clip0_0_151">
<rect width="36" height="36" fill="white"/>
</clipPath>
</defs>
</svg>
