<svg width="36" height="36" viewBox="0 0 36 36" fill="none" xmlns="http://www.w3.org/2000/svg">
<g clip-path="url(#clip0_204_2)">
<path d="M5.40027 28.8C5.0691 28.8 4.80029 29.0688 4.80029 29.4C4.80029 29.7311 5.0691 29.9999 5.40027 29.9999H11.4002C11.7314 29.9999 12.0002 29.7311 12.0002 29.4C12.0002 29.0688 11.7314 28.8 11.4002 28.8H10.8002V14.4001H11.4002C11.7314 14.4001 12.0002 14.1313 12.0002 13.8001C12.0002 13.4689 11.7314 13.2001 11.4002 13.2001H5.40027C5.0691 13.2001 4.80029 13.4689 4.80029 13.8001C4.80029 14.1313 5.0691 14.4001 5.40027 14.4001H6.00024V28.8H5.40027ZM7.20026 14.4001H9.60022V28.8H7.20026V14.4001Z" fill="white"/>
<path d="M0.600108 12H35.3999C35.668 12 35.9032 11.8224 35.9771 11.5644C36.0503 11.307 35.9441 11.0316 35.7161 10.8901L18.3162 0.0901391C18.1224 -0.0298836 17.8776 -0.0298836 17.6838 0.0901391L0.283914 10.8901C0.0558924 11.0317 -0.0502789 11.3071 0.022916 11.5644C0.0966734 11.8224 0.331938 12 0.600108 12ZM18 1.30633L33.2957 10.8001H2.70427L18 1.30633Z" fill="white"/>
<path d="M2.3999 31.7999C2.3999 32.1311 2.66871 32.3999 2.99988 32.3999H32.9997C33.3309 32.3999 33.5997 32.1311 33.5997 31.7999C33.5997 31.4688 33.3309 31.2 32.9997 31.2H2.99988C2.66871 31.2 2.3999 31.4688 2.3999 31.7999Z" fill="white"/>
<path d="M35.3997 33.5999H0.599973C0.268803 33.5999 0 33.8687 0 34.1999V35.3999C0 35.7311 0.268803 35.9999 0.599973 35.9999C0.931143 35.9999 1.19995 35.7311 1.19995 35.3999V34.7999H34.7998V35.3999C34.7998 35.7311 35.0686 35.9999 35.3997 35.9999C35.7309 35.9999 35.9997 35.7311 35.9997 35.3999V34.1999C35.9998 33.8687 35.731 33.5999 35.3997 33.5999Z" fill="white"/>
<path d="M14.9999 28.8C14.6687 28.8 14.3999 29.0688 14.3999 29.4C14.3999 29.7311 14.6687 29.9999 14.9999 29.9999H20.9998C21.331 29.9999 21.5998 29.7311 21.5998 29.4C21.5998 29.0688 21.331 28.8 20.9998 28.8H20.3998V14.4001H20.9998C21.331 14.4001 21.5998 14.1313 21.5998 13.8001C21.5998 13.4689 21.331 13.2001 20.9998 13.2001H14.9999C14.6687 13.2001 14.3999 13.4689 14.3999 13.8001C14.3999 14.1313 14.6687 14.4001 14.9999 14.4001H15.5998V28.8H14.9999ZM16.7999 14.4001H19.1998V28.8H16.7999V14.4001Z" fill="white"/>
<path d="M24.6 28.8C24.2688 28.8 24 29.0688 24 29.4C24 29.7311 24.2688 29.9999 24.6 29.9999H30.5999C30.9311 29.9999 31.1999 29.7311 31.1999 29.4C31.1999 29.0688 30.9311 28.8 30.5999 28.8H29.9999V14.4001H30.5999C30.9311 14.4001 31.1999 14.1313 31.1999 13.8001C31.1999 13.4689 30.9311 13.2001 30.5999 13.2001H24.6C24.2688 13.2001 24 13.4689 24 13.8001C24 14.1313 24.2688 14.4001 24.6 14.4001H25.1999V28.8H24.6ZM26.4 14.4001H28.7999V28.8H26.4V14.4001Z" fill="white"/>
</g>
<defs>
<clipPath id="clip0_204_2">
<rect width="36" height="36" fill="white"/>
</clipPath>
</defs>
</svg>
