<svg width="36" height="36" viewBox="0 0 36 36" fill="none" xmlns="http://www.w3.org/2000/svg">
<g clip-path="url(#clip0_0_107)">
<path d="M9.88589 17.0595C5.93037 17.0595 2.71222 13.8414 2.71222 9.88584C2.71222 5.93033 5.92998 2.71217 9.88589 2.71217C11.2555 2.71217 12.5872 3.09943 13.7371 3.83244C13.9212 3.9498 13.9754 4.19401 13.858 4.37815C13.7406 4.5623 13.496 4.61604 13.3123 4.49907C12.2896 3.84706 11.1049 3.50249 9.88589 3.50249C6.36623 3.50249 3.50253 6.36618 3.50253 9.88584C3.50253 13.4059 6.36623 16.2692 9.88589 16.2692C13.4059 16.2692 16.2692 13.4055 16.2692 9.88584C16.2692 8.39847 15.7464 6.95022 14.7973 5.80822C14.6578 5.64028 14.6807 5.39133 14.8487 5.25184C15.0166 5.11235 15.2659 5.13567 15.405 5.30321C16.472 6.58668 17.0596 8.21433 17.0596 9.88584C17.0596 13.8414 13.8414 17.0595 9.88589 17.0595Z" fill="white"/>
<path d="M9.88586 19.5735C4.54374 19.5735 0.197815 15.2276 0.197815 9.88585C0.197815 4.54412 4.54374 0.1978 9.88586 0.1978C15.228 0.1978 19.5739 4.54373 19.5739 9.88585C19.5739 15.228 15.2276 19.5735 9.88586 19.5735ZM9.88586 0.988112C4.9796 0.988112 0.988127 4.97959 0.988127 9.88585C0.988127 14.7921 4.9796 18.7836 9.88586 18.7836C14.7921 18.7836 18.7836 14.7921 18.7836 9.88585C18.7836 4.97959 14.7917 0.988112 9.88586 0.988112Z" fill="white"/>
<path d="M10.0182 13.3217C8.12347 13.3217 6.58197 11.7802 6.58197 9.88545C6.58197 7.99068 8.12347 6.44917 10.0182 6.44917C10.873 6.44917 11.6921 6.7649 12.3248 7.33867C12.4864 7.48527 12.4986 7.73501 12.352 7.89663C12.2054 8.05785 11.9561 8.07089 11.7941 7.9239C11.3069 7.48251 10.6762 7.23949 10.0182 7.23949C8.55933 7.23949 7.37228 8.42654 7.37228 9.88545C7.37228 11.3444 8.55933 12.5314 10.0182 12.5314C10.6762 12.5314 11.3069 12.2884 11.7941 11.847C11.9561 11.7004 12.2058 11.713 12.3524 11.8747C12.499 12.0363 12.4864 12.2864 12.3248 12.433C11.6917 13.006 10.8726 13.3217 10.0182 13.3217Z" fill="white"/>
<path d="M10.0183 7.23988C9.80014 7.23988 9.62311 7.06285 9.62311 6.84472V5.67862C9.62311 5.46049 9.80014 5.28346 10.0183 5.28346C10.2364 5.28346 10.4134 5.46049 10.4134 5.67862V6.84472C10.4134 7.06285 10.2364 7.23988 10.0183 7.23988Z" fill="white"/>
<path d="M10.0183 14.4882C9.80014 14.4882 9.62311 14.3112 9.62311 14.0931V12.9266C9.62311 12.7084 9.80014 12.5314 10.0183 12.5314C10.2364 12.5314 10.4134 12.7084 10.4134 12.9266V14.0931C10.4134 14.3112 10.2364 14.4882 10.0183 14.4882Z" fill="white"/>
<path d="M26.0738 33.2475C22.1179 33.2475 18.9001 30.0293 18.9001 26.0742C18.9001 22.1183 22.1183 18.9005 26.0738 18.9005C27.4438 18.9005 28.7755 19.2878 29.925 20.0212C30.1088 20.1386 30.1629 20.3828 30.0455 20.5669C29.9286 20.7511 29.6848 20.8056 29.4998 20.6874C28.4775 20.0358 27.2929 19.6913 26.0738 19.6913C22.5542 19.6913 19.6905 22.5549 19.6905 26.0746C19.6905 29.5943 22.5542 32.4576 26.0738 32.4576C29.5935 32.4576 32.4568 29.5943 32.4568 26.0746C32.4568 24.5868 31.9344 23.1386 30.9848 21.9966C30.8453 21.8287 30.8686 21.5797 31.0366 21.4402C31.2041 21.3003 31.4535 21.324 31.593 21.492C32.6595 22.7758 33.2471 24.4031 33.2471 26.075C33.2475 30.0293 30.0293 33.2475 26.0738 33.2475Z" fill="white"/>
<path d="M26.0738 35.7619C20.7317 35.7619 16.3858 31.4159 16.3858 26.0738C16.3858 20.7317 20.7321 16.3858 26.0738 16.3858C31.4156 16.3858 35.7619 20.7321 35.7619 26.0738C35.7619 31.4155 31.416 35.7619 26.0738 35.7619ZM26.0738 17.1761C21.1676 17.1761 17.1761 21.1676 17.1761 26.0738C17.1761 30.9801 21.1676 34.9716 26.0738 34.9716C30.9801 34.9716 34.9716 30.9801 34.9716 26.0738C34.9716 21.1676 30.9801 17.1761 26.0738 17.1761Z" fill="white"/>
<path d="M26.0742 26.469C26.0604 26.469 26.0465 26.4682 26.0323 26.4666C24.2766 26.2809 23.908 25.2969 23.908 24.5039C23.908 24.2853 24.0846 24.1087 24.3031 24.1087C24.5216 24.1087 24.6983 24.2853 24.6983 24.5039C24.6983 24.982 24.8591 25.5479 26.1157 25.681C26.3326 25.7039 26.4899 25.8984 26.467 26.1157C26.4457 26.3188 26.2738 26.469 26.0742 26.469Z" fill="white"/>
<path d="M24.3031 24.8994C24.0846 24.8994 23.908 24.7228 23.908 24.5043C23.908 23.4207 24.8796 22.5387 26.0738 22.5387C26.8361 22.5387 27.5501 22.9082 27.9386 23.5025C28.0583 23.6855 28.0065 23.9301 27.824 24.0494C27.641 24.1688 27.3964 24.1178 27.2771 23.9348C27.0329 23.5614 26.5721 23.3291 26.0738 23.3291C25.3151 23.3291 24.6983 23.8562 24.6983 24.5043C24.6983 24.7224 24.5216 24.8994 24.3031 24.8994Z" fill="white"/>
<path d="M26.0738 29.6089C25.312 29.6089 24.5979 29.2398 24.2095 28.6455C24.0897 28.4629 24.1411 28.2179 24.3241 28.0986C24.507 27.9789 24.752 28.0298 24.871 28.2132C25.1148 28.5862 25.5759 28.8182 26.0738 28.8182C26.8325 28.8182 27.4494 28.291 27.4494 27.6434C27.4494 27.4249 27.626 27.2482 27.8445 27.2482C28.063 27.2482 28.2397 27.4249 28.2397 27.6434C28.2401 28.7273 27.2684 29.6089 26.0738 29.6089Z" fill="white"/>
<path d="M27.8449 28.0389C27.6264 28.0389 27.4498 27.8623 27.4498 27.6438C27.4498 27.1652 27.2889 26.5994 26.0327 26.4666C25.8154 26.4437 25.6581 26.2493 25.6811 26.0323C25.704 25.815 25.9015 25.6581 26.1153 25.6806C27.8714 25.8656 28.2401 26.8499 28.2401 27.6434C28.2401 27.8623 28.0634 28.0389 27.8449 28.0389Z" fill="white"/>
<path d="M26.0738 23.3291C25.8553 23.3291 25.6786 23.1524 25.6786 22.9339V21.8666C25.6786 21.6481 25.8553 21.4714 26.0738 21.4714C26.2923 21.4714 26.469 21.6481 26.469 21.8666V22.9339C26.469 23.1524 26.2923 23.3291 26.0738 23.3291Z" fill="white"/>
<path d="M26.0738 30.6766C25.8553 30.6766 25.6786 30.5 25.6786 30.2814V29.2137C25.6786 28.9952 25.8553 28.8186 26.0738 28.8186C26.2923 28.8186 26.469 28.9952 26.469 29.2137V30.2814C26.469 30.5 26.2923 30.6766 26.0738 30.6766Z" fill="white"/>
<path d="M30.4348 15.0158C30.2629 15.0158 30.1048 14.9024 30.055 14.7289C29.4658 12.6666 28.3499 10.7718 26.827 9.24885C25.3041 7.72632 23.4097 6.61 21.347 6.02082C21.1371 5.96076 21.0154 5.74224 21.0751 5.53241C21.1352 5.32219 21.3557 5.20166 21.5635 5.26094C23.7551 5.88686 25.7684 7.07273 27.3854 8.6901C29.0027 10.3075 30.1886 12.3208 30.8149 14.5115C30.8746 14.7214 30.7533 14.9399 30.543 15C30.5071 15.0106 30.4707 15.0158 30.4348 15.0158Z" fill="white"/>
<path d="M22.1298 7.94286C21.967 7.94286 21.8144 7.8417 21.7575 7.67929L21.083 5.77266C21.0099 5.56679 21.1178 5.34115 21.3233 5.26844L23.2299 4.59352C23.437 4.52081 23.6618 4.62868 23.7341 4.83417C23.8072 5.04004 23.6993 5.26568 23.4939 5.33839L21.9595 5.88133L22.502 7.41533C22.5751 7.6212 22.4672 7.84684 22.2618 7.91955C22.2183 7.93575 22.1732 7.94286 22.1298 7.94286Z" fill="white"/>
<path d="M14.5048 30.7141C14.4689 30.7141 14.4321 30.709 14.3962 30.6991C12.2046 30.0728 10.1913 28.8869 8.57433 27.2696C6.95695 25.6526 5.77109 23.6393 5.14516 21.4477C5.0851 21.2383 5.2068 21.0194 5.41663 20.9593C5.62685 20.9016 5.84498 21.021 5.90504 21.2312C6.49462 23.2939 7.61054 25.1891 9.13308 26.7112C10.6556 28.2337 12.5504 29.3501 14.6135 29.9392C14.8233 29.9993 14.9446 30.2182 14.885 30.4276C14.8348 30.6007 14.6767 30.7141 14.5048 30.7141Z" fill="white"/>
<path d="M12.5978 31.3887C12.435 31.3887 12.2829 31.2875 12.2252 31.1255C12.1525 30.9196 12.2604 30.6936 12.4658 30.6213L13.9998 30.0783L13.4569 28.5443C13.3842 28.3385 13.4917 28.1124 13.6976 28.0401C13.9022 27.967 14.1291 28.0745 14.2018 28.2804L14.8767 30.187C14.9115 30.2858 14.9059 30.3945 14.8605 30.4893C14.8151 30.5841 14.7344 30.6568 14.6357 30.6916L12.729 31.3661C12.686 31.3812 12.6417 31.3887 12.5978 31.3887Z" fill="white"/>
</g>
<defs>
<clipPath id="clip0_0_107">
<rect width="36" height="36" fill="white"/>
</clipPath>
</defs>
</svg>
