<svg width="25" height="25" viewBox="0 0 25 25" fill="none" xmlns="http://www.w3.org/2000/svg">
<g clip-path="url(#clip0_0_315)">
<path fill-rule="evenodd" clip-rule="evenodd" d="M2.77778 0H22.2222C23.7563 0 25 1.24365 25 2.77778V22.2222C25 23.7563 23.7563 25 22.2222 25H18.8653V16.0725H21.9832L22.4479 12.4549H18.8653V10.1415C18.8653 9.09722 19.1551 8.38271 20.6591 8.38271L22.5778 8.37771V5.1449C22.2431 5.09993 21.1043 5 19.7847 5C17.0166 5 15.1284 6.68886 15.1284 9.78675V12.4549H12V16.0725H15.1284V25H2.77778C1.24365 25 0 23.7563 0 22.2222V2.77778C0 1.24365 1.24365 0 2.77778 0Z" fill="white"/>
</g>
<defs>
<clipPath id="clip0_0_315">
<rect width="25" height="25" fill="white"/>
</clipPath>
</defs>
</svg>
