<svg width="36" height="36" viewBox="0 0 36 36" fill="none" xmlns="http://www.w3.org/2000/svg">
<g clip-path="url(#clip0_205_12)">
<path d="M7.875 28.125H6.75C3.64388 28.125 1.125 25.6061 1.125 22.5C1.125 19.3939 3.64388 16.875 6.75 16.875H7.875V28.125Z" stroke="white" stroke-miterlimit="10" stroke-linejoin="round"/>
<path d="M29.25 28.125H28.125V16.875H29.25C32.3561 16.875 34.875 19.3939 34.875 22.5C34.875 25.6061 32.3561 28.125 29.25 28.125Z" stroke="white" stroke-miterlimit="10" stroke-linejoin="round"/>
<path d="M5.625 16.875V13.5C5.625 6.66563 11.1656 1.125 18 1.125C24.8344 1.125 30.375 6.66563 30.375 13.5V16.875" stroke="white" stroke-miterlimit="10" stroke-linejoin="round"/>
<path d="M30.375 28.125V32.625C30.375 33.8681 29.3681 34.875 28.125 34.875H24.75" stroke="white" stroke-miterlimit="10" stroke-linejoin="round"/>
<path d="M20.25 34.875H22.5" stroke="white" stroke-miterlimit="10" stroke-linejoin="round"/>
<path d="M18 27V29.25" stroke="white" stroke-miterlimit="10" stroke-linejoin="round"/>
<path d="M18 24.75V21.8081C18 20.187 18.9866 18.7301 20.4919 18.1283C22.3841 17.3711 23.625 15.5385 23.625 13.5C23.625 10.3939 21.1061 7.875 18 7.875C14.8939 7.875 12.375 10.3939 12.375 13.5" stroke="white" stroke-miterlimit="10" stroke-linejoin="round"/>
</g>
<defs>
<clipPath id="clip0_205_12">
<rect width="36" height="36" fill="white"/>
</clipPath>
</defs>
</svg>
