<svg width="36" height="36" viewBox="0 0 36 36" fill="none" xmlns="http://www.w3.org/2000/svg">
<path d="M30.0155 31.065H5.94417C5.05388 31.065 4.32916 30.3407 4.32916 29.45C4.32916 28.2108 4.86934 27.0388 5.81139 26.2343C6.57721 25.5803 7.01662 24.6272 7.01662 23.6199V14.7644C7.01702 8.71974 11.9351 3.80202 17.9798 3.80202C24.0249 3.80202 28.9427 8.71974 28.9427 14.7648V23.6203C28.9427 24.6275 29.3817 25.5807 30.1479 26.2346C31.0903 27.0392 31.6305 28.2112 31.6305 29.4504C31.6305 30.3407 30.9062 31.065 30.0155 31.065ZM17.9798 4.59233C12.371 4.59233 7.80733 9.1556 7.80733 14.7648V23.6203C7.80733 24.8591 7.26715 26.0311 6.3251 26.8361C5.55928 27.4901 5.11987 28.4428 5.11987 29.4504C5.11987 29.9049 5.48974 30.2751 5.94456 30.2751H30.0159C30.4703 30.2751 30.8406 29.9049 30.8406 29.4504C30.8406 28.4428 30.4012 27.4901 29.635 26.8361C28.6929 26.0311 28.1527 24.8591 28.1527 23.6203V14.7648C28.1523 9.1556 23.5891 4.59233 17.9798 4.59233Z" fill="white"/>
<path d="M17.9798 35.7619C15.1888 35.7619 12.9178 33.4913 12.9178 30.6999C12.9178 30.6904 12.919 30.6647 12.9194 30.6553C12.9348 30.4415 13.1142 30.2652 13.332 30.2822C13.5461 30.2917 13.7133 30.4636 13.7093 30.6778C13.7093 30.6849 13.7082 30.7054 13.7078 30.7126C13.7082 33.055 15.6247 34.9715 17.9798 34.9715C20.3349 34.9715 22.2514 33.055 22.2514 30.6999C22.2514 30.4814 22.4273 30.2897 22.6458 30.2897C22.8643 30.2897 23.0402 30.4514 23.0402 30.6699C23.0418 33.4913 20.7708 35.7619 17.9798 35.7619Z" fill="white"/>
<path d="M32.0249 15.1596C31.8063 15.1596 31.6297 14.9826 31.6297 14.7644C31.6297 9.15836 28.1136 4.03833 22.8794 2.02421C22.6755 1.94597 22.5743 1.71718 22.6525 1.51367C22.7312 1.30977 22.9612 1.20861 23.1635 1.28685C28.7 3.41754 32.42 8.83394 32.42 14.7644C32.42 14.983 32.2434 15.1596 32.0249 15.1596Z" fill="white"/>
<path d="M3.93477 15.1596C3.71664 15.1596 3.53961 14.9826 3.53961 14.7644C3.53961 8.83394 7.25961 3.41754 12.7961 1.28685C12.9997 1.20861 13.2284 1.31017 13.3067 1.51367C13.3853 1.71757 13.2834 1.94597 13.0799 2.02421C7.84602 4.03872 4.32992 9.15876 4.32992 14.7644C4.32992 14.983 4.15289 15.1596 3.93477 15.1596Z" fill="white"/>
<path d="M17.9798 4.59352C16.7678 4.59352 15.7819 3.6076 15.7819 2.39566C15.7819 1.18372 16.7678 0.197802 17.9798 0.197802C19.1913 0.197802 20.1776 1.18372 20.1776 2.39566C20.1776 3.60721 19.1913 4.59352 17.9798 4.59352ZM17.9798 0.988114C17.2037 0.988114 16.5722 1.61957 16.5722 2.39566C16.5722 3.17175 17.2037 3.80321 17.9798 3.80321C18.7559 3.80321 19.3873 3.17175 19.3873 2.39566C19.3873 1.61957 18.7559 0.988114 17.9798 0.988114Z" fill="white"/>
</svg>
