<svg width="32" height="32" viewBox="0 0 32 32" fill="none" xmlns="http://www.w3.org/2000/svg">
<path d="M24.8364 14.3543C24.4227 13.9406 23.879 13.7042 23.2998 13.7042H10.7351V10.8556C10.7351 9.3781 11.3025 7.99516 12.3426 6.955C13.3828 5.91484 14.7657 5.34748 16.2432 5.34748C17.6971 5.34748 19.08 5.91484 20.1438 6.955C21.184 7.99516 21.7514 9.3781 21.7514 10.8556C21.7514 11.2338 22.0469 11.5175 22.4133 11.5175C22.7915 11.5175 23.0988 11.222 23.0988 10.8556C23.0988 9.03532 22.3896 7.3096 21.0894 6.0094C19.7892 4.7092 18.0753 4 16.2432 4C14.423 4 12.6972 4.72102 11.397 6.0094C10.0968 7.3096 9.38764 9.03532 9.38764 10.8556V13.7042H9.1867C8.60752 13.7042 8.0638 13.9288 7.6501 14.3543C7.2364 14.768 7 15.3117 7 15.8909V25.4769C7 26.0561 7.22458 26.5998 7.6501 27.0135C8.05198 27.4154 8.60752 27.64 9.1867 27.64H23.2998C23.8671 27.64 24.4109 27.4154 24.8364 27.0135C25.2501 26.5998 25.4865 26.0443 25.4865 25.4769V15.8909C25.4865 15.3236 25.2501 14.768 24.8364 14.3543ZM8.3593 15.8909C8.3593 15.6782 8.45386 15.4418 8.5957 15.2999C8.74936 15.1463 8.96212 15.0635 9.1867 15.0635H23.2998C23.5125 15.0635 23.7135 15.1463 23.8908 15.2999C24.0444 15.4536 24.1272 15.6782 24.1272 15.8909V25.4769C24.1272 25.6897 24.0444 25.8906 23.8908 26.0443C23.7135 26.2098 23.5007 26.2925 23.2998 26.2925H9.1867C8.96212 26.2925 8.74936 26.198 8.5957 26.0561C8.44204 25.9025 8.3593 25.7015 8.3593 25.4888V15.8909Z" fill="#E6A03B"/>
</svg>
