<svg width="32" height="32" viewBox="0 0 32 32" fill="none" xmlns="http://www.w3.org/2000/svg">
<g clip-path="url(#clip0_86_32)">
<path d="M5.97245 1.22956C5.99738 1.22956 6.02232 1.22991 6.04796 1.23062C6.09398 1.23167 6.13964 1.23448 6.18425 1.23729C6.24431 1.24115 6.30438 1.24572 6.36444 1.25274C6.41256 1.25836 6.46033 1.26609 6.5081 1.27347C6.565 1.2826 6.62155 1.29138 6.67916 1.30368C6.72447 1.31316 6.76873 1.3251 6.82844 1.34021L6.84811 1.34547C6.89483 1.35742 6.94154 1.36901 6.98791 1.38341C7.03111 1.39676 7.07361 1.41291 7.11647 1.42837L7.14316 1.4382L7.18672 1.45401C7.22114 1.4663 7.25591 1.4786 7.28998 1.49265C7.33284 1.51056 7.37499 1.53129 7.41714 1.55166L7.45015 1.56746L7.50811 1.59486C7.5334 1.6068 7.55869 1.61804 7.58363 1.63139C7.62754 1.65493 7.67004 1.68162 7.71289 1.70761L7.74766 1.72904L7.8151 1.76943C7.83161 1.77927 7.84882 1.7884 7.86533 1.79964C7.91907 1.83547 7.97071 1.87586 8.02234 1.91555L8.04131 1.92995C8.06484 1.94787 8.08873 1.96543 8.11261 1.98264L8.13334 1.99739C8.22361 2.07116 8.30861 2.14808 8.38624 2.22536L11.2521 5.0912C11.3297 5.16883 11.4063 5.25383 11.4772 5.34024L11.4959 5.36553C11.5131 5.38942 11.5303 5.41295 11.5482 5.43648L11.5643 5.45791C11.6033 5.50884 11.6427 5.55907 11.6782 5.61246C11.6894 5.62932 11.6989 5.64688 11.7091 5.66409L11.7484 5.73013L11.7705 5.76631C11.7965 5.80881 11.8229 5.85061 11.846 5.89451C11.8594 5.91945 11.871 5.94509 11.8826 5.97038L11.9096 6.02764L11.9258 6.06136C11.9458 6.10316 11.9665 6.14495 11.9844 6.18781C11.9985 6.22118 12.0101 6.25525 12.0224 6.28932L12.0385 6.33393L12.0484 6.36062C12.0642 6.40347 12.08 6.44633 12.0937 6.49058C12.1077 6.53554 12.119 6.58121 12.1306 6.62687L12.139 6.66024C12.1509 6.7066 12.1632 6.75297 12.1734 6.80039C12.1854 6.85624 12.1941 6.91244 12.2029 6.96899C12.2106 7.01746 12.2184 7.06558 12.224 7.11476C12.231 7.17447 12.2352 7.23418 12.2391 7.29354C12.2419 7.3392 12.2447 7.38452 12.2458 7.43018C12.2472 7.49305 12.2468 7.55593 12.2451 7.61845C12.2437 7.66095 12.2419 7.70345 12.2391 7.7463C12.2349 7.81199 12.2286 7.87732 12.2208 7.94125C12.2159 7.98024 12.2103 8.01922 12.204 8.05856C12.1931 8.12671 12.1811 8.19415 12.1664 8.26124C12.1594 8.29285 12.1513 8.32376 12.1407 8.36556C12.1232 8.43581 12.1042 8.50535 12.0824 8.57385C12.0768 8.59176 12.0701 8.60932 12.0638 8.62724L12.0505 8.66447C12.0252 8.73613 11.9992 8.80743 11.9693 8.87698L11.9563 8.90437L11.9339 8.9525C11.9001 9.02591 11.8657 9.09862 11.8229 9.17624L11.7923 9.22823C11.7414 9.31709 11.7013 9.38243 11.6641 9.43792C11.6522 9.45373 11.6406 9.46954 11.6293 9.48534C11.564 9.57877 11.5088 9.65183 11.4558 9.71506C11.3754 9.8113 11.3125 9.8812 11.2521 9.94162L9.31318 11.8805C8.65424 12.5395 8.65424 13.6111 9.31318 14.2701L17.694 22.6509C18.0133 22.9702 18.4376 23.1458 18.889 23.1458C19.3403 23.1458 19.7646 22.9702 20.0839 22.6509L22.0228 20.712C22.0832 20.6516 22.1531 20.5887 22.2494 20.5079C22.3129 20.4549 22.386 20.3994 22.4791 20.334C22.4942 20.3235 22.5089 20.3126 22.5258 20.3C22.582 20.262 22.648 20.2216 22.738 20.17L22.7935 20.1366C22.8651 20.0973 22.9385 20.0629 23.0126 20.0288L23.0601 20.0067L23.086 19.9944C23.1566 19.9642 23.2283 19.9378 23.3014 19.9122L23.3386 19.8989C23.3555 19.8929 23.3723 19.8866 23.3895 19.8809C23.4591 19.8588 23.529 19.8398 23.6112 19.8191C23.6417 19.8114 23.6719 19.8037 23.7028 19.7966C23.7706 19.7819 23.8384 19.7696 23.9076 19.7587C23.9459 19.7527 23.9842 19.7468 24.0221 19.7422C24.0878 19.7341 24.1531 19.7281 24.2206 19.7236C24.2624 19.7208 24.3045 19.719 24.346 19.7176C24.3839 19.7166 24.4219 19.7158 24.4601 19.7158C24.4851 19.7158 24.51 19.7162 24.5353 19.7169C24.581 19.718 24.6266 19.7208 24.6716 19.7236C24.7317 19.7274 24.7914 19.732 24.8518 19.7387C24.8999 19.7443 24.9477 19.752 24.9954 19.7594C25.0523 19.7685 25.1089 19.7773 25.1661 19.7896C25.2115 19.7991 25.2561 19.811 25.3154 19.8261L25.3351 19.8314C25.3818 19.8434 25.4285 19.8549 25.4749 19.8693C25.5185 19.8827 25.561 19.8989 25.6038 19.9143L25.6302 19.9238L25.6737 19.9396C25.7081 19.9519 25.7429 19.9642 25.777 19.9782C25.8198 19.9961 25.8616 20.0169 25.9038 20.0369L25.9368 20.0527L25.9947 20.0801C26.02 20.092 26.0453 20.1033 26.0703 20.1166C26.1142 20.1402 26.1567 20.1669 26.1995 20.1928L26.2343 20.2143L26.3017 20.2547C26.3182 20.2645 26.3355 20.2736 26.352 20.2849C26.4057 20.3207 26.4573 20.3611 26.5093 20.4008L26.5279 20.4152C26.5515 20.4331 26.5754 20.4507 26.5996 20.4679L26.6203 20.4826C26.7106 20.5564 26.7956 20.6333 26.8732 20.7106L29.7391 23.5764C29.8167 23.6541 29.8933 23.7391 29.9642 23.8255L29.9828 23.8508C30.0001 23.8746 30.0173 23.8982 30.0352 23.9217L30.0513 23.9431C30.0903 23.9941 30.1297 24.0443 30.1651 24.0977C30.1764 24.1146 30.1859 24.1318 30.196 24.149L30.2354 24.215L30.2575 24.2512C30.2835 24.2937 30.3099 24.3355 30.3334 24.3797C30.3467 24.4047 30.3583 24.4303 30.3699 24.4556L30.397 24.5129L30.4131 24.5466C30.4331 24.5884 30.4539 24.6298 30.4714 24.6727C30.4855 24.7061 30.4971 24.7401 30.5094 24.7742L30.5255 24.8192L30.5354 24.8459C30.5512 24.8887 30.567 24.9316 30.5807 24.9758C30.5947 25.0208 30.606 25.0661 30.6175 25.1114L30.6263 25.1448C30.6383 25.1915 30.6506 25.2379 30.6608 25.2853C30.6727 25.3411 30.6815 25.3973 30.6903 25.4539C30.698 25.5023 30.7057 25.5505 30.7113 25.5996C30.7184 25.6593 30.7226 25.7191 30.7264 25.7784C30.7292 25.8241 30.7321 25.8694 30.7331 25.9151C30.7345 25.9779 30.7342 26.0408 30.7324 26.1033C30.731 26.1458 30.7292 26.1883 30.7264 26.2312C30.7222 26.2969 30.7159 26.3622 30.7082 26.4261C30.7033 26.4655 30.6973 26.5041 30.6913 26.5434C30.6804 26.6116 30.6685 26.679 30.6537 26.7465C30.6467 26.7777 30.6386 26.809 30.6281 26.8508C30.6105 26.9207 30.5916 26.9906 30.5698 27.0591C30.5642 27.077 30.5575 27.0949 30.5512 27.1125L30.5378 27.1497C30.5125 27.2214 30.4865 27.2927 30.4567 27.3622L30.4437 27.39L30.4212 27.4381C30.3875 27.5115 30.3531 27.5842 30.3102 27.6618L30.2796 27.7138C30.2287 27.8023 30.1887 27.868 30.1514 27.9235C30.1395 27.9393 30.1279 27.9551 30.1167 27.9709C30.0513 28.0644 29.9962 28.1374 29.9431 28.2003C29.8627 28.2965 29.7998 28.3664 29.7394 28.4268L29.7303 28.436L29.7212 28.4455C28.3176 29.9221 26.1985 30.7346 23.7541 30.7346C19.1945 30.7346 13.9507 27.9811 8.98301 22.9758C3.93519 17.9659 1.18175 12.6803 1.23022 8.09299C1.25551 5.69957 2.0676 3.62228 3.51686 2.24292L3.52634 2.23379L3.53547 2.22465C3.59589 2.16424 3.66579 2.10136 3.76203 2.02058C3.82561 1.96754 3.89867 1.91204 3.9921 1.84671C4.0072 1.83617 4.02195 1.82528 4.03881 1.81264C4.09501 1.7747 4.16105 1.73431 4.25097 1.68303L4.30647 1.64966C4.37812 1.61032 4.45153 1.57589 4.52565 1.54182L4.57307 1.51969L4.59906 1.5074C4.66966 1.47719 4.74167 1.45085 4.81437 1.42521L4.85161 1.41186C4.86882 1.40589 4.88568 1.39957 4.90254 1.39395C4.97209 1.37182 5.04198 1.35285 5.12347 1.33213C5.15403 1.3244 5.18459 1.31632 5.2155 1.30965C5.28329 1.29489 5.35108 1.2826 5.42028 1.27171C5.45857 1.26574 5.49685 1.25977 5.53444 1.2552C5.60012 1.24712 5.66545 1.24115 5.73289 1.23659C5.77469 1.23378 5.81684 1.23202 5.85829 1.23062C5.89657 1.23026 5.93451 1.22956 5.97245 1.22956ZM5.97245 0.175812C5.92397 0.175812 5.87585 0.176514 5.82738 0.177919C5.77223 0.179676 5.71744 0.182134 5.66264 0.185647C5.57694 0.191267 5.49123 0.199346 5.40588 0.209883C5.35565 0.216206 5.30577 0.223582 5.25554 0.231309C5.16633 0.245359 5.07781 0.261517 4.9893 0.280836C4.94434 0.290671 4.89973 0.302262 4.85512 0.313502C4.76309 0.337036 4.67177 0.361974 4.58079 0.391128C4.5418 0.403773 4.50317 0.418174 4.46453 0.431522C4.37004 0.464891 4.27626 0.499664 4.18353 0.539355C4.15086 0.553405 4.1189 0.569212 4.08658 0.584316C3.98999 0.628573 3.8941 0.674587 3.80032 0.725869C3.77503 0.739919 3.75044 0.755374 3.7255 0.770127C3.6268 0.826678 3.5288 0.885337 3.43361 0.950318C3.41816 0.960855 3.4034 0.972798 3.38795 0.983687C3.28503 1.05569 3.18387 1.13086 3.08622 1.21235C2.98506 1.297 2.88531 1.38446 2.79047 1.4793C-1.18322 5.26051 -1.53833 14.0179 8.24047 23.7236C14.035 29.5621 19.4924 31.7883 23.7541 31.7883C26.6302 31.7883 28.9611 30.7746 30.4848 29.1736C30.5796 29.0788 30.6674 28.979 30.7517 28.8779C30.8332 28.7806 30.9077 28.6797 30.9797 28.5775C30.9909 28.5617 31.0032 28.5466 31.0141 28.5305C31.0787 28.4356 31.137 28.3383 31.1936 28.24C31.2084 28.2143 31.2245 28.1894 31.2386 28.1634C31.2898 28.07 31.3355 27.9748 31.3794 27.8785C31.3945 27.8455 31.4107 27.8132 31.4251 27.7802C31.4648 27.6882 31.4992 27.5947 31.5322 27.5006C31.5459 27.4613 31.5607 27.4223 31.5733 27.3826C31.6021 27.2923 31.627 27.2013 31.6502 27.1097C31.6618 27.0644 31.6731 27.0194 31.6832 26.9741C31.7026 26.8863 31.7184 26.7981 31.7324 26.7092C31.7405 26.6587 31.7479 26.6084 31.7542 26.5575C31.7647 26.4725 31.7725 26.3875 31.7781 26.3021C31.7816 26.2466 31.7844 26.1915 31.7858 26.136C31.7883 26.0542 31.7886 25.9727 31.7869 25.8908C31.7855 25.8315 31.7823 25.7721 31.7784 25.7127C31.7735 25.6348 31.7675 25.5568 31.7584 25.4792C31.751 25.4159 31.7412 25.3531 31.7314 25.2898C31.7198 25.2161 31.7078 25.1427 31.6924 25.0696C31.6783 25.0032 31.6611 24.9375 31.6443 24.8715C31.6263 24.8023 31.6091 24.7335 31.5881 24.6653C31.5666 24.5965 31.5413 24.5287 31.5167 24.4605C31.4936 24.3966 31.4714 24.3323 31.4451 24.2691C31.4156 24.1982 31.3815 24.1293 31.3481 24.0598C31.32 24.0011 31.2941 23.9421 31.2631 23.8848C31.2242 23.8114 31.1795 23.7408 31.1363 23.6692C31.1051 23.6179 31.0763 23.5652 31.0426 23.515C30.9899 23.4359 30.9312 23.3601 30.8729 23.2838C30.8423 23.2438 30.815 23.2024 30.783 23.1634C30.6899 23.0496 30.5905 22.9389 30.4844 22.8328L27.6186 19.967C27.5125 19.8609 27.4019 19.7619 27.2881 19.6684C27.2491 19.6365 27.208 19.6094 27.1683 19.5789C27.0917 19.5206 27.0158 19.4615 26.9364 19.4089C26.8862 19.3755 26.8342 19.347 26.783 19.3158C26.7113 19.2722 26.6403 19.2276 26.5669 19.1886C26.5097 19.1581 26.4507 19.1317 26.3924 19.104C26.3228 19.0706 26.2533 19.0365 26.1823 19.007C26.1191 18.9807 26.0545 18.9586 25.9902 18.935C25.9224 18.9104 25.8553 18.8855 25.7865 18.8641C25.7176 18.8426 25.6481 18.8251 25.5785 18.8072C25.5132 18.7903 25.4479 18.7734 25.3822 18.7594C25.3084 18.7439 25.2346 18.7316 25.1605 18.7201C25.098 18.7102 25.0355 18.7004 24.9726 18.693C24.8946 18.6839 24.8167 18.6779 24.7383 18.673C24.679 18.6691 24.62 18.666 24.5606 18.6646C24.5269 18.6639 24.4932 18.6635 24.4598 18.6635C24.4113 18.6635 24.3632 18.6642 24.3147 18.6656C24.2596 18.6674 24.2048 18.6698 24.15 18.6733C24.0643 18.679 23.9786 18.687 23.8932 18.6976C23.843 18.7039 23.7931 18.7113 23.7429 18.719C23.6537 18.7331 23.5652 18.7492 23.4766 18.7685C23.4317 18.7784 23.3871 18.79 23.3425 18.8012C23.2504 18.8244 23.1591 18.8493 23.0681 18.8785C23.0291 18.8911 22.9905 18.9055 22.9519 18.9189C22.8574 18.9522 22.7636 18.987 22.6709 19.0267C22.6382 19.0407 22.6062 19.0566 22.5739 19.0717C22.4773 19.1159 22.3814 19.1619 22.2877 19.2132C22.2624 19.2273 22.2378 19.2427 22.2128 19.2575C22.1138 19.3144 22.0161 19.373 21.921 19.438C21.9055 19.4485 21.8907 19.4608 21.8753 19.4714C21.7724 19.5434 21.6712 19.6182 21.5736 19.7C21.4724 19.7847 21.3726 19.8722 21.2778 19.967L19.3389 21.9059C19.2146 22.0302 19.0519 22.0921 18.8893 22.0921C18.7267 22.0921 18.5637 22.0299 18.4397 21.9059L10.0585 13.5247C9.8102 13.2764 9.8102 12.8735 10.0585 12.6252L11.9974 10.6863C12.0923 10.5914 12.1801 10.4917 12.2647 10.3905C12.3462 10.2932 12.4207 10.1924 12.4927 10.0902C12.5039 10.0744 12.5162 10.0593 12.5271 10.0431C12.5918 9.94829 12.6501 9.85099 12.7066 9.75264C12.7214 9.727 12.7375 9.70206 12.7516 9.67607C12.8029 9.58264 12.8485 9.48745 12.8924 9.39121C12.9075 9.35819 12.9237 9.32587 12.9381 9.29286C12.9778 9.20083 13.0122 9.1074 13.0452 9.01326C13.0589 8.97392 13.0737 8.93493 13.0863 8.89524C13.1151 8.80497 13.1401 8.714 13.1632 8.62232C13.1748 8.57701 13.1861 8.53205 13.1963 8.48674C13.2156 8.39893 13.2314 8.31076 13.2454 8.2219C13.2535 8.17132 13.2609 8.12109 13.2672 8.07016C13.2777 7.98515 13.2855 7.90015 13.2911 7.8148C13.295 7.7593 13.2974 7.70415 13.2988 7.64866C13.3013 7.56681 13.3016 7.48532 13.2999 7.40348C13.2985 7.34412 13.2953 7.28476 13.2914 7.2254C13.2865 7.14742 13.2806 7.06944 13.2714 6.99182C13.264 6.92859 13.2542 6.86572 13.2444 6.80249C13.2328 6.72873 13.2205 6.65532 13.2054 6.58226C13.1913 6.51587 13.1741 6.45019 13.1573 6.38416C13.1394 6.31496 13.1221 6.24611 13.1007 6.17797C13.0793 6.10913 13.054 6.04134 13.0294 5.97319C13.0062 5.90927 12.9841 5.84499 12.9578 5.78176C12.9282 5.71081 12.8942 5.64196 12.8608 5.57242C12.8327 5.51376 12.8067 5.45475 12.7758 5.39749C12.7368 5.32408 12.6922 5.25348 12.649 5.18183C12.6177 5.13054 12.5889 5.07786 12.5552 5.02763C12.5025 4.9486 12.4439 4.87273 12.3856 4.79651C12.355 4.75646 12.3276 4.71502 12.2956 4.67603C12.2026 4.56222 12.1032 4.45158 11.9971 4.3455L9.13124 1.47965C9.02516 1.37357 8.91452 1.27452 8.80071 1.18109C8.76172 1.14913 8.72062 1.12208 8.68058 1.09152C8.60401 1.03321 8.52814 0.974203 8.44876 0.921515C8.39853 0.888147 8.34654 0.859696 8.29526 0.828434C8.22361 0.784879 8.15265 0.740271 8.07924 0.701282C8.02199 0.670723 7.96298 0.644379 7.90467 0.616631C7.83512 0.583262 7.76558 0.54919 7.69462 0.519686C7.6314 0.493342 7.56677 0.471213 7.50249 0.447679C7.4347 0.423092 7.36761 0.398153 7.29876 0.376727C7.22992 0.355301 7.16037 0.337738 7.09083 0.319824C7.02549 0.302964 6.96016 0.286104 6.89448 0.272054C6.82071 0.256599 6.74695 0.244306 6.67284 0.232714C6.61032 0.222879 6.54779 0.213044 6.48492 0.205668C6.40694 0.196536 6.32896 0.190564 6.25064 0.185647C6.19127 0.181783 6.13226 0.178622 6.0729 0.177217C6.03988 0.176163 6.00617 0.175812 5.97245 0.175812Z" fill="#E9A135"/>
<path d="M31.7882 16.5089H30.7345C30.7345 8.08385 23.8802 1.22956 15.4551 1.22956V0.175812C24.4615 0.175812 31.7882 7.50289 31.7882 16.5089Z" fill="#E9A135"/>
<path d="M27.3976 16.5089H26.3438C26.3438 10.505 21.4593 5.62019 15.4551 5.62019V4.56644C22.0403 4.56644 27.3976 9.9237 27.3976 16.5089Z" fill="#E9A135"/>
<path d="M23.007 16.5089H21.9532C21.9532 12.9258 19.0382 10.0108 15.4551 10.0108V8.95706C19.6191 8.95706 23.007 12.3449 23.007 16.5089Z" fill="#E9A135"/>
</g>
<defs>
<clipPath id="clip0_86_32">
<rect width="32" height="32" fill="white"/>
</clipPath>
</defs>
</svg>
