<svg width="36" height="36" viewBox="0 0 36 36" fill="none" xmlns="http://www.w3.org/2000/svg">
<path d="M18 1.18885C21.6383 1.18885 24.598 3.69853 24.598 6.7836V9.2164C24.598 12.3015 21.6383 14.8111 18 14.8111C14.3617 14.8111 11.402 12.3015 11.402 9.2164V6.7836C11.402 3.69853 14.3617 1.18885 18 1.18885ZM18 0C13.6 0 10 3.05258 10 6.7836V9.2164C10 12.9474 13.6 16 18 16C22.4 16 26 12.9474 26 9.2164V6.7836C26 3.05258 22.4 0 18 0Z" fill="white"/>
<path d="M19.5327 21.1517L19.1921 19.8304L19.7875 19.1232L20.8935 17.8092C21.1962 17.4496 20.8178 17 20.2123 17H18.0004H15.7879C15.1825 17 14.8035 17.4496 15.1068 17.8092L16.2127 19.1232L16.8081 19.8304L16.4675 21.1517L16.128 22.4682L18.0004 26L19.8642 22.436L19.5327 21.1517Z" fill="white"/>
<path d="M24.0989 18.4283C29.0509 19.6228 32.5277 23.3602 32.5277 27.6737V34.7906H3.4728V27.6737C3.4728 23.3598 6.94959 19.6224 11.9016 18.4283L13.8781 23.1776L16.6067 29.7341L18 33.0829L19.3938 29.7341L22.1224 23.1776L24.0989 18.4283ZM23.1366 17L20.7286 22.7861L18 29.3431L15.2714 22.7866L12.8634 17.0004C6.70756 17.9179 2 22.3649 2 27.6741V34.8124C2 35.4659 2.65098 36 3.44629 36H32.5537C33.3495 36 34 35.4654 34 34.8124V27.6737C34 22.3649 29.2924 17.9179 23.1366 17Z" fill="white"/>
</svg>
