<svg width="36" height="36" viewBox="0 0 36 36" fill="none" xmlns="http://www.w3.org/2000/svg">
<path fill-rule="evenodd" clip-rule="evenodd" d="M6 30V5.25H4.5V30.75C4.5 31.1642 4.83579 31.5 5.25 31.5H30.75V30H6Z" fill="white"/>
<path fill-rule="evenodd" clip-rule="evenodd" d="M8.25 18.75C8.25 18.3358 8.58578 18 9 18H13.5C13.9142 18 14.25 18.3358 14.25 18.75V30.75C14.25 31.1642 13.9142 31.5 13.5 31.5H9C8.58578 31.5 8.25 31.1642 8.25 30.75V18.75ZM9.75 19.5V30H12.75V19.5H9.75Z" fill="white"/>
<path fill-rule="evenodd" clip-rule="evenodd" d="M15.75 15.75C15.75 15.3358 16.0858 15 16.5 15H21C21.4142 15 21.75 15.3358 21.75 15.75V30.75C21.75 31.1642 21.4142 31.5 21 31.5H16.5C16.0858 31.5 15.75 31.1642 15.75 30.75V15.75ZM17.25 16.5V30H20.25V16.5H17.25Z" fill="white"/>
<path fill-rule="evenodd" clip-rule="evenodd" d="M23.25 9.75C23.25 9.33578 23.5858 9 24 9H28.5C28.9142 9 29.25 9.33578 29.25 9.75V30.75C29.25 31.1642 28.9142 31.5 28.5 31.5H24C23.5858 31.5 23.25 31.1642 23.25 30.75V9.75ZM24.75 10.5V30H27.75V10.5H24.75Z" fill="white"/>
</svg>
