<svg width="25" height="25" viewBox="0 0 25 25" fill="none" xmlns="http://www.w3.org/2000/svg">
<path fill-rule="evenodd" clip-rule="evenodd" d="M5.38333 25H19.6167C22.5889 25 25 22.5889 25 19.6167V5.38333C25 2.41111 22.5889 0 19.6167 0H5.38333C2.41111 0 0 2.41111 0 5.38333V19.6167C0 22.5889 2.41111 25 5.38333 25ZM14.2826 7.61978L5.86598 11.0864C4.38542 11.6642 5.25209 12.2059 5.25209 12.2059C5.25209 12.2059 6.51598 12.6392 7.59931 12.9642C8.68264 13.2892 9.26042 12.9281 9.26042 12.9281L14.3549 9.50311C16.1604 8.27533 15.7271 9.28644 15.2938 9.71977C14.3549 10.6587 12.8021 12.1392 11.5021 13.3309C10.9243 13.8364 11.2132 14.2698 11.466 14.4864C12.2008 15.1082 13.9311 16.2388 14.7177 16.7528C14.9361 16.8955 15.0818 16.9907 15.1132 17.0142C15.2938 17.1587 16.3049 17.8087 16.9188 17.6642C17.5326 17.5198 17.6049 16.6892 17.6049 16.6892L18.5076 11.017C18.5888 10.4787 18.6699 9.95203 18.7454 9.4617C18.9389 8.20614 19.0956 7.1889 19.1215 6.82533C19.2299 5.59755 17.9299 6.10311 17.9299 6.10311C17.9299 6.10311 15.1132 7.25867 14.2826 7.61978Z" fill="white"/>
</svg>
