<svg width="36" height="36" viewBox="0 0 36 36" fill="none" xmlns="http://www.w3.org/2000/svg">
<mask id="path-1-inside-1_0_135" fill="white">
<path d="M27.9741 29.7334C27.8244 29.7334 27.6726 29.7037 27.5252 29.6429C27.0862 29.4611 26.8131 29.0529 26.8131 28.5775V26.6496C26.8131 26.4492 26.6503 26.2864 26.45 26.2864H13.7485C13.5304 26.2864 13.3533 26.1098 13.3533 25.8913C13.3533 25.6727 13.5304 25.4961 13.7485 25.4961H26.45C27.0858 25.4961 27.6035 26.0138 27.6035 26.6496V28.5775C27.6035 28.8024 27.7753 28.8909 27.8275 28.913C27.8805 28.9347 28.065 28.9928 28.2235 28.8344L34.8649 22.1922C34.9336 22.1234 34.9715 22.0322 34.9715 21.9353C34.9715 21.8385 34.9336 21.7469 34.8649 21.6785L28.2239 15.0371C28.0646 14.8779 27.8801 14.9367 27.8279 14.9585C27.7753 14.9802 27.6039 15.0687 27.6039 15.294V17.2215C27.6039 17.8573 27.0862 18.375 26.4504 18.375H18.8594C18.6409 18.375 18.4643 18.198 18.4643 17.9798C18.4643 17.7617 18.6409 17.5847 18.8594 17.5847H26.4504C26.6507 17.5847 26.8135 17.4219 26.8135 17.2215V15.294C26.8135 14.8186 27.0862 14.4104 27.5256 14.2282C27.9658 14.0468 28.4471 14.1421 28.783 14.4784L35.4244 21.1197C35.6417 21.3375 35.7619 21.6275 35.7619 21.9353C35.7619 22.2432 35.6417 22.5332 35.424 22.7509L28.7826 29.3927C28.5589 29.616 28.2713 29.7334 27.9741 29.7334Z"/>
</mask>
<path d="M27.9741 29.7334C27.8244 29.7334 27.6726 29.7037 27.5252 29.6429C27.0862 29.4611 26.8131 29.0529 26.8131 28.5775V26.6496C26.8131 26.4492 26.6503 26.2864 26.45 26.2864H13.7485C13.5304 26.2864 13.3533 26.1098 13.3533 25.8913C13.3533 25.6727 13.5304 25.4961 13.7485 25.4961H26.45C27.0858 25.4961 27.6035 26.0138 27.6035 26.6496V28.5775C27.6035 28.8024 27.7753 28.8909 27.8275 28.913C27.8805 28.9347 28.065 28.9928 28.2235 28.8344L34.8649 22.1922C34.9336 22.1234 34.9715 22.0322 34.9715 21.9353C34.9715 21.8385 34.9336 21.7469 34.8649 21.6785L28.2239 15.0371C28.0646 14.8779 27.8801 14.9367 27.8279 14.9585C27.7753 14.9802 27.6039 15.0687 27.6039 15.294V17.2215C27.6039 17.8573 27.0862 18.375 26.4504 18.375H18.8594C18.6409 18.375 18.4643 18.198 18.4643 17.9798C18.4643 17.7617 18.6409 17.5847 18.8594 17.5847H26.4504C26.6507 17.5847 26.8135 17.4219 26.8135 17.2215V15.294C26.8135 14.8186 27.0862 14.4104 27.5256 14.2282C27.9658 14.0468 28.4471 14.1421 28.783 14.4784L35.4244 21.1197C35.6417 21.3375 35.7619 21.6275 35.7619 21.9353C35.7619 22.2432 35.6417 22.5332 35.424 22.7509L28.7826 29.3927C28.5589 29.616 28.2713 29.7334 27.9741 29.7334Z" fill="white"/>
<path d="M27.5252 29.6429L25.6125 34.2626L25.6171 34.2645L27.5252 29.6429ZM27.8275 28.913L25.8748 33.5159L25.9018 33.5274L25.929 33.5385L27.8275 28.913ZM28.2235 28.8344L31.759 32.3699L31.7592 32.3697L28.2235 28.8344ZM34.8649 22.1922L31.3293 18.6567L31.3291 18.6569L34.8649 22.1922ZM34.8649 21.6785L31.3292 25.2139L31.3344 25.2191L31.3395 25.2242L34.8649 21.6785ZM28.2239 15.0371L31.7595 11.5017L31.7594 11.5016L28.2239 15.0371ZM27.8279 14.9585L29.7386 19.579L29.751 19.5739L27.8279 14.9585ZM27.5256 14.2282L25.6208 9.60525L25.6108 9.6094L27.5256 14.2282ZM28.783 14.4784L25.2454 18.0118L25.2475 18.0139L28.783 14.4784ZM35.4244 21.1197L38.9631 17.5874L38.9599 17.5842L35.4244 21.1197ZM35.424 22.7509L31.8885 19.2154L31.8884 19.2155L35.424 22.7509ZM28.7826 29.3927L32.315 32.9314L32.3182 32.9282L28.7826 29.3927ZM27.9741 24.7334C28.49 24.7334 28.9858 24.8365 29.4333 25.0213L25.6171 34.2645C26.3594 34.5709 27.1587 34.7334 27.9741 34.7334V24.7334ZM29.438 25.0232C30.8663 25.6146 31.8131 27.0289 31.8131 28.5775H21.8131C21.8131 31.0769 23.3061 33.3076 25.6125 34.2625L29.438 25.0232ZM31.8131 28.5775V26.6496H21.8131V28.5775H31.8131ZM31.8131 26.6496C31.8131 23.6878 29.4118 21.2864 26.45 21.2864V31.2864C23.8889 31.2864 21.8131 29.2106 21.8131 26.6496H31.8131ZM26.45 21.2864H13.7485V31.2864H26.45V21.2864ZM13.7485 21.2864C16.2885 21.2864 18.3533 23.3451 18.3533 25.8913H8.35333C8.35333 28.8745 10.7722 31.2864 13.7485 31.2864V21.2864ZM18.3533 25.8913C18.3533 28.4374 16.2885 30.4961 13.7485 30.4961V20.4961C10.7722 20.4961 8.35333 22.9081 8.35333 25.8913H18.3533ZM13.7485 30.4961H26.45V20.4961H13.7485V30.4961ZM26.45 30.4961C24.3244 30.4961 22.6035 28.7752 22.6035 26.6496H32.6035C32.6035 23.2523 29.8472 20.4961 26.45 20.4961V30.4961ZM22.6035 26.6496V28.5775H32.6035V26.6496H22.6035ZM22.6035 28.5775C22.6035 31.9667 25.348 33.2924 25.8748 33.5159L29.7803 24.3101C30.0964 24.4442 30.74 24.7551 31.3503 25.4087C32.0526 26.1608 32.6035 27.2668 32.6035 28.5775H22.6035ZM25.929 33.5385C26.5013 33.7735 29.3701 34.7588 31.759 32.3699L24.6879 25.2988C25.6152 24.3715 26.7854 23.9806 27.8091 23.9444C28.6986 23.9129 29.3767 24.1441 29.726 24.2875L25.929 33.5385ZM31.7592 32.3697L38.4006 25.7275L31.3291 18.6569L24.6877 25.2991L31.7592 32.3697ZM38.4004 25.7277C39.4015 24.7266 39.9715 23.3657 39.9715 21.9353H29.9715C29.9715 20.6986 30.4657 19.5203 31.3293 18.6567L38.4004 25.7277ZM39.9715 21.9353C39.9715 20.5133 39.407 19.1437 38.3902 18.1328L31.3395 25.2242C30.4602 24.35 29.9715 23.1638 29.9715 21.9353H39.9715ZM38.4005 18.1431L31.7595 11.5017L24.6882 18.5725L31.3292 25.2139L38.4005 18.1431ZM31.7594 11.5016C29.3663 9.10853 26.4944 10.0974 25.9048 10.3431L29.751 19.5739C29.3928 19.7231 28.71 19.9575 27.8156 19.927C26.785 19.8919 25.614 19.4983 24.6883 18.5726L31.7594 11.5016ZM25.9172 10.338C25.3294 10.581 22.6039 11.9128 22.6039 15.294H32.6039C32.6039 16.5979 32.058 17.7041 31.3523 18.4606C30.7397 19.1173 30.0896 19.4338 29.7386 19.579L25.9172 10.338ZM22.6039 15.294V17.2215H32.6039V15.294H22.6039ZM22.6039 17.2215C22.6039 15.0959 24.3248 13.375 26.4504 13.375V23.375C29.8476 23.375 32.6039 20.6188 32.6039 17.2215H22.6039ZM26.4504 13.375H18.8594V23.375H26.4504V13.375ZM18.8594 13.375C21.4056 13.375 23.4643 15.4398 23.4643 17.9798H13.4643C13.4643 20.9561 15.8762 23.375 18.8594 23.375V13.375ZM23.4643 17.9798C23.4643 20.5199 21.4056 22.5847 18.8594 22.5847V12.5847C15.8762 12.5847 13.4643 15.0035 13.4643 17.9798H23.4643ZM18.8594 22.5847H26.4504V12.5847H18.8594V22.5847ZM26.4504 22.5847C29.4121 22.5847 31.8135 20.1834 31.8135 17.2215H21.8135C21.8135 14.6604 23.8894 12.5847 26.4504 12.5847V22.5847ZM31.8135 17.2215V15.294H21.8135V17.2215H31.8135ZM31.8135 15.294C31.8135 16.8411 30.868 18.2552 29.4404 18.847L25.6108 9.6094C23.3044 10.5655 21.8135 12.7961 21.8135 15.294H31.8135ZM29.4304 18.8512C28.014 19.4348 26.3455 19.1132 25.2454 18.0118L32.3206 10.9449C30.5488 9.17098 27.9176 8.65891 25.6208 9.60526L29.4304 18.8512ZM25.2475 18.0139L31.8889 24.6553L38.9599 17.5842L32.3185 10.9428L25.2475 18.0139ZM31.8856 24.6521C31.1681 23.9332 30.7619 22.9532 30.7619 21.9353H40.7619C40.7619 20.3019 40.1154 18.7418 38.9631 17.5874L31.8856 24.6521ZM30.7619 21.9353C30.7619 20.917 31.1686 19.9353 31.8885 19.2154L38.9595 26.2865C40.1149 25.1311 40.7619 23.5693 40.7619 21.9353H30.7619ZM31.8884 19.2155L25.247 25.8573L32.3182 32.9282L38.9596 26.2864L31.8884 19.2155ZM25.2502 25.8541C25.946 25.1595 26.9215 24.7334 27.9741 24.7334V34.7334C29.621 34.7334 31.1719 34.0725 32.315 32.9314L25.2502 25.8541Z" fill="white" mask="url(#path-1-inside-1_0_135)"/>
<mask id="path-3-inside-2_0_135" fill="white">
<path d="M7.98475 21.8223C7.68799 21.8223 7.39992 21.705 7.17665 21.4817L0.535264 14.8399C0.0855761 14.3902 0.0855761 13.6584 0.535264 13.2087L7.17665 6.56732C7.51293 6.23065 7.99423 6.13502 8.43365 6.31719C8.87266 6.49896 9.14572 6.90755 9.14572 7.38293V9.31089C9.14572 9.51124 9.30852 9.67404 9.50887 9.67404H22.2108C22.4293 9.67404 22.6059 9.85107 22.6059 10.0692C22.6059 10.2873 22.4293 10.4644 22.2108 10.4644H9.50887C8.87306 10.4644 8.3554 9.9467 8.3554 9.31089V7.38293C8.3554 7.15769 8.18391 7.06917 8.13135 7.04744C8.0788 7.02571 7.89544 6.96683 7.7358 7.12608L1.09401 13.7675C1.02565 13.8362 0.987718 13.9271 0.987718 14.0243C0.987718 14.1215 1.02565 14.2124 1.09401 14.2812L7.73541 20.9226C7.89505 21.0818 8.0788 21.0237 8.13096 21.0012C8.18351 20.9791 8.35501 20.8909 8.35501 20.6657V18.7377C8.35501 18.1019 8.87266 17.5843 9.50847 17.5843H18.8587C19.0772 17.5843 19.2538 17.7613 19.2538 17.9794C19.2538 18.1976 19.0772 18.3746 18.8587 18.3746H9.50887C9.30852 18.3746 9.14572 18.5374 9.14572 18.7377V20.6657C9.14572 21.1411 8.87306 21.5493 8.43365 21.7311C8.28665 21.7927 8.13451 21.8223 7.98475 21.8223Z"/>
</mask>
<path d="M7.98475 21.8223C7.68799 21.8223 7.39992 21.705 7.17665 21.4817L0.535264 14.8399C0.0855761 14.3902 0.0855761 13.6584 0.535264 13.2087L7.17665 6.56732C7.51293 6.23065 7.99423 6.13502 8.43365 6.31719C8.87266 6.49896 9.14572 6.90755 9.14572 7.38293V9.31089C9.14572 9.51124 9.30852 9.67404 9.50887 9.67404H22.2108C22.4293 9.67404 22.6059 9.85107 22.6059 10.0692C22.6059 10.2873 22.4293 10.4644 22.2108 10.4644H9.50887C8.87306 10.4644 8.3554 9.9467 8.3554 9.31089V7.38293C8.3554 7.15769 8.18391 7.06917 8.13135 7.04744C8.0788 7.02571 7.89544 6.96683 7.7358 7.12608L1.09401 13.7675C1.02565 13.8362 0.987718 13.9271 0.987718 14.0243C0.987718 14.1215 1.02565 14.2124 1.09401 14.2812L7.73541 20.9226C7.89505 21.0818 8.0788 21.0237 8.13096 21.0012C8.18351 20.9791 8.35501 20.8909 8.35501 20.6657V18.7377C8.35501 18.1019 8.87266 17.5843 9.50847 17.5843H18.8587C19.0772 17.5843 19.2538 17.7613 19.2538 17.9794C19.2538 18.1976 19.0772 18.3746 18.8587 18.3746H9.50887C9.30852 18.3746 9.14572 18.5374 9.14572 18.7377V20.6657C9.14572 21.1411 8.87306 21.5493 8.43365 21.7311C8.28665 21.7927 8.13451 21.8223 7.98475 21.8223Z" fill="white"/>
<path d="M7.17665 21.4817L3.64102 25.0171L3.64112 25.0172L7.17665 21.4817ZM0.535264 14.8399L4.0709 11.3045L4.0708 11.3044L0.535264 14.8399ZM0.535264 13.2087L4.0708 16.7442L0.535264 13.2087ZM7.17665 6.56732L10.7122 10.1029L10.7143 10.1008L7.17665 6.56732ZM8.43365 6.31719L6.51883 10.936L6.52091 10.9369L8.43365 6.31719ZM7.7358 7.12608L4.20465 3.58616L4.20037 3.59044L7.7358 7.12608ZM1.09401 13.7675L-2.44141 10.2318L-2.44656 10.237L-2.45169 10.2421L1.09401 13.7675ZM1.09401 14.2812L-2.45169 17.8065L-2.44661 17.8116L-2.44152 17.8167L1.09401 14.2812ZM7.73541 20.9226L4.19987 24.4581L4.20426 24.4625L7.73541 20.9226ZM8.13096 21.0012L6.19067 16.393L6.16968 16.4019L6.14878 16.4109L8.13096 21.0012ZM8.43365 21.7311L6.52238 17.1108L6.51118 17.1154L6.50001 17.1201L8.43365 21.7311ZM7.98475 16.8223C9.0361 16.8223 10.0135 17.2474 10.7122 17.9462L3.64112 25.0172C4.78637 26.1625 6.33988 26.8223 7.98475 26.8223V16.8223ZM10.7123 17.9463L4.0709 11.3045L-3.00038 18.3753L3.64102 25.0171L10.7123 17.9463ZM4.0708 11.3044C5.57373 12.8073 5.57373 15.2413 4.0708 16.7442L-3.00027 9.67318C-5.40258 12.0755 -5.40258 15.9731 -3.00027 18.3755L4.0708 11.3044ZM4.0708 16.7442L10.7122 10.1029L3.64112 3.03179L-3.00027 9.67318L4.0708 16.7442ZM10.7143 10.1008C9.61942 11.1969 7.94797 11.5285 6.51883 10.936L10.3485 1.69837C8.04049 0.741562 5.40644 1.26439 3.63904 3.03387L10.7143 10.1008ZM6.52091 10.9369C5.09068 10.3447 4.14572 8.92958 4.14572 7.38293H14.1457C14.1457 4.88553 12.6546 2.65323 10.3464 1.69751L6.52091 10.9369ZM4.14572 7.38293V9.31089H14.1457V7.38293H4.14572ZM4.14572 9.31089C4.14572 12.2727 6.5471 14.674 9.50887 14.674V4.67404C12.0699 4.67404 14.1457 6.74981 14.1457 9.31089H4.14572ZM9.50887 14.674H22.2108V4.67404H9.50887V14.674ZM22.2108 14.674C19.6646 14.674 17.6059 12.6092 17.6059 10.0692H27.6059C27.6059 7.09291 25.194 4.67404 22.2108 4.67404V14.674ZM17.6059 10.0692C17.6059 7.52916 19.6646 5.46436 22.2108 5.46436V15.4644C25.194 15.4644 27.6059 13.0455 27.6059 10.0692H17.6059ZM22.2108 5.46436H9.50887V15.4644H22.2108V5.46436ZM9.50887 5.46436C11.6345 5.46436 13.3554 7.18528 13.3554 9.31089H3.3554C3.3554 12.7081 6.11164 15.4644 9.50887 15.4644V5.46436ZM13.3554 9.31089V7.38293H3.3554V9.31089H13.3554ZM13.3554 7.38293C13.3554 4.00174 10.6299 2.67 10.0421 2.42693L6.22062 11.6679C5.86964 11.5228 5.2196 11.2063 4.60701 10.5496C3.90131 9.79314 3.3554 8.68692 3.3554 7.38293H13.3554ZM10.0421 2.42693C9.46262 2.1873 6.59694 1.1998 4.20465 3.58616L11.267 10.666C10.3467 11.584 9.18039 11.9806 8.14429 12.016C7.24455 12.0467 6.56163 11.809 6.22062 11.6679L10.0421 2.42693ZM4.20037 3.59044L-2.44141 10.2318L4.62944 17.3031L11.2712 10.6617L4.20037 3.59044ZM-2.45169 10.2421C-3.44174 11.2379 -4.01228 12.5922 -4.01228 14.0243H5.98772C5.98772 15.262 5.49305 16.4345 4.63972 17.2928L-2.45169 10.2421ZM-4.01228 14.0243C-4.01228 15.4564 -3.44173 16.8107 -2.45169 17.8065L4.63972 10.7558C5.49303 11.6141 5.98772 12.7866 5.98772 14.0243H-4.01228ZM-2.44152 17.8167L4.19987 24.4581L11.2709 17.387L4.62955 10.7456L-2.44152 17.8167ZM4.20426 24.4625C6.58336 26.8357 9.43413 25.8847 10.1131 25.5915L6.14878 16.4109C6.55567 16.2352 7.25285 16.0013 8.15074 16.0332C9.18724 16.07 10.3497 16.4681 11.2666 17.3826L4.20426 24.4625ZM10.0712 25.6094C10.6154 25.3803 13.355 24.0535 13.355 20.6657H3.35501C3.35501 19.3606 3.9018 18.2537 4.60821 17.4972C5.22176 16.8401 5.86969 16.5282 6.19067 16.393L10.0712 25.6094ZM13.355 20.6657V18.7377H3.35501V20.6657H13.355ZM13.355 18.7377C13.355 20.8634 11.6341 22.5843 9.50847 22.5843V12.5843C6.11124 12.5843 3.35501 15.3405 3.35501 18.7377H13.355ZM9.50847 22.5843H18.8587V12.5843H9.50847V22.5843ZM18.8587 22.5843C16.3125 22.5843 14.2538 20.5195 14.2538 17.9794H24.2538C24.2538 15.0031 21.8419 12.5843 18.8587 12.5843V22.5843ZM14.2538 17.9794C14.2538 15.4394 16.3125 13.3746 18.8587 13.3746V23.3746C21.8419 23.3746 24.2538 20.9557 24.2538 17.9794H14.2538ZM18.8587 13.3746H9.50887V23.3746H18.8587V13.3746ZM9.50887 13.3746C6.54711 13.3746 4.14572 15.776 4.14572 18.7377H14.1457C14.1457 21.2988 12.0699 23.3746 9.50887 23.3746V13.3746ZM4.14572 18.7377V20.6657H14.1457V18.7377H4.14572ZM4.14572 20.6657C4.14572 19.1192 5.09105 17.7029 6.52238 17.1108L10.3449 26.3513C12.6551 25.3957 14.1457 23.1629 14.1457 20.6657H4.14572ZM6.50001 17.1201C6.96538 16.9249 7.47058 16.8223 7.98475 16.8223V26.8223C8.79844 26.8223 9.60791 26.6605 10.3673 26.342L6.50001 17.1201Z" fill="white" mask="url(#path-3-inside-2_0_135)"/>
</svg>
