<svg width="36" height="36" viewBox="0 0 36 36" fill="none" xmlns="http://www.w3.org/2000/svg">
<g clip-path="url(#clip0_127_287)">
<path d="M19.0001 24.6555C13.6035 24.678 9.0934 28.4456 7.93352 33.4935L7.9189 33.57C7.90652 33.624 7.89977 33.6859 7.89977 33.75C7.89977 34.2158 8.27777 34.5938 8.74352 34.5938C9.14515 34.5938 9.48152 34.3125 9.5659 33.9356L9.56702 33.93C10.5514 29.5594 14.4011 26.343 19.0013 26.343C23.6014 26.343 27.4511 29.5594 28.4231 33.8659L28.4355 33.93C28.521 34.3125 28.8563 34.5938 29.259 34.5938H29.2601C29.3243 34.5938 29.3861 34.5859 29.4458 34.5724L29.4401 34.5735C29.8226 34.488 30.1039 34.1516 30.1039 33.7489C30.1039 33.6847 30.0971 33.6229 30.0836 33.5632L30.0848 33.5689C28.9091 28.4456 24.3979 24.678 19.0046 24.6544H19.0024L19.0001 24.6555ZM11.3096 11.9272C14.2144 11.9272 16.5701 9.57263 16.5701 6.66675C16.5701 3.76088 14.2155 1.40625 11.3096 1.40625C8.4049 1.40625 6.04915 3.76088 6.04915 6.66675C6.05252 9.57038 8.40715 11.9239 11.3096 11.9272ZM11.3096 3.09375C13.2829 3.09375 14.8826 4.6935 14.8826 6.66675C14.8826 8.64 13.2829 10.2397 11.3096 10.2397C9.3364 10.2397 7.73665 8.64 7.73665 6.66675C7.7389 4.69463 9.33865 3.096 11.3096 3.09375ZM26.7919 11.9272C29.6966 11.9272 32.0524 9.57263 32.0524 6.66675C32.0524 3.76088 29.6978 1.40625 26.7919 1.40625C23.8871 1.40625 21.5314 3.76088 21.5314 6.66675C21.5348 9.57038 23.8883 11.9239 26.7908 11.9272H26.7919ZM26.7919 3.09375C28.7651 3.09375 30.3649 4.6935 30.3649 6.66675C30.3649 8.64 28.7651 10.2397 26.7919 10.2397C24.8186 10.2397 23.2189 8.64 23.2189 6.66675C23.2211 4.69463 24.8198 3.096 26.7919 3.09375ZM35.6749 22.32C34.6871 17.9393 30.8284 14.7161 26.2181 14.7161C25.7423 14.7161 25.2743 14.751 24.8164 14.8162L24.8681 14.8095C24.813 14.823 24.7646 14.841 24.7185 14.8624L24.723 14.8601C23.8781 12.465 21.6349 10.7797 18.9979 10.7797C16.3721 10.7797 14.1368 12.4504 13.2964 14.7859L13.2829 14.8286C13.2638 14.8241 13.2491 14.8129 13.23 14.8095C12.8261 14.7499 12.3604 14.715 11.8856 14.715C11.8834 14.715 11.88 14.715 11.8778 14.715C7.27427 14.7352 3.4279 17.9482 2.43677 22.2536L2.4244 22.3189C2.41202 22.3729 2.40527 22.4348 2.40527 22.4989C2.40527 22.9646 2.78327 23.3426 3.24902 23.3426C3.65065 23.3426 3.98702 23.0614 4.0714 22.6845L4.07252 22.6789C4.90165 19.071 8.07752 16.4183 11.8766 16.4025H11.8789C12.2558 16.4025 12.6259 16.4295 12.987 16.4812L12.9454 16.4767C12.9364 16.6106 12.9049 16.7378 12.9049 16.875C12.9116 20.2354 15.6375 22.9568 18.999 22.9568C22.3605 22.9568 25.0864 20.2354 25.092 16.875V16.8739C25.092 16.7389 25.0605 16.6118 25.0515 16.4779C25.0695 16.4756 25.0864 16.4835 25.1044 16.479C25.4351 16.4295 25.8176 16.4025 26.2069 16.4025C26.2114 16.4025 26.2148 16.4025 26.2193 16.4025C30.0206 16.4171 33.1965 19.0699 34.0144 22.6249L34.0245 22.6789C34.11 23.0614 34.4464 23.3415 34.848 23.3426C34.9121 23.3426 34.974 23.3347 35.0336 23.3212L35.028 23.3224C35.4105 23.2369 35.6918 22.9005 35.6918 22.4977C35.6918 22.4336 35.685 22.3717 35.6715 22.3121L35.6726 22.3177L35.6749 22.32ZM19.0001 21.2805C19.0001 21.2805 19.0001 21.2805 18.999 21.2805C16.5656 21.2805 14.5924 19.3084 14.5924 16.8739C14.5924 14.4394 16.5656 12.4672 18.999 12.4672C21.4324 12.4672 23.4056 14.4405 23.4056 16.8739C23.4056 16.8739 23.4056 16.8739 23.4056 16.875C23.4023 19.3072 21.4324 21.2771 19.0001 21.2805Z" fill="white"/>
</g>
<defs>
<clipPath id="clip0_127_287">
<rect width="36" height="36" fill="white"/>
</clipPath>
</defs>
</svg>
