<svg width="32" height="32" viewBox="0 0 32 32" fill="none" xmlns="http://www.w3.org/2000/svg">
<path d="M26.3526 27.0133C26.0889 22.6222 23.0933 18.9689 19.043 17.7274C21.4963 16.5807 23.2 14.0889 23.2 11.2C23.2 7.2237 19.9763 4 16 4C12.0237 4 8.80001 7.2237 8.80001 11.2C8.80001 14.0889 10.5037 16.5807 12.96 17.7274C8.90964 18.9689 5.91409 22.6222 5.65038 27.0133C5.62964 27.3541 5.89927 27.6444 6.24297 27.6444C6.55409 27.6444 6.81483 27.4015 6.83557 27.0904C7.11705 22.2756 11.1141 18.4593 16 18.4593C20.8859 18.4593 24.883 22.2756 25.1674 27.0904C25.1852 27.4015 25.4459 27.6444 25.76 27.6444C26.1037 27.6444 26.3733 27.3541 26.3526 27.0133ZM9.9852 11.2C9.9852 7.87852 12.6785 5.18519 16 5.18519C19.3215 5.18519 22.0148 7.87852 22.0148 11.2C22.0148 14.5215 19.3215 17.2148 16 17.2148C12.6785 17.2148 9.9852 14.5215 9.9852 11.2Z" fill="#E6A03B"/>
</svg>
