<svg width="25" height="25" viewBox="0 0 25 25" fill="none" xmlns="http://www.w3.org/2000/svg">
<g clip-path="url(#clip0_0_331)">
<path fill-rule="evenodd" clip-rule="evenodd" d="M13.0407 7.14957C13.6545 7.22619 14.1506 7.37407 14.6949 7.63954C15.2302 7.90147 15.5728 8.14913 16.026 8.5999C16.4507 9.02574 16.6863 9.34824 16.9361 9.8489C17.2841 10.5474 17.4822 11.3776 17.516 12.2917C17.5286 12.6035 17.5196 12.673 17.4482 12.762C17.3126 12.9349 17.0146 12.9063 16.9129 12.7122C16.8808 12.648 16.8719 12.5928 16.8612 12.3433C16.8433 11.9603 16.8166 11.7126 16.763 11.4168C16.5525 10.2569 15.9957 9.33042 15.1071 8.66582C14.3665 8.10993 13.601 7.83909 12.5982 7.7803C12.2591 7.76071 12.2002 7.74825 12.1235 7.68944C11.9807 7.57719 11.9736 7.3135 12.111 7.19056C12.1949 7.11393 12.2537 7.10325 12.5446 7.11216C12.6963 7.1175 12.9193 7.13532 13.0407 7.14957ZM8.96146 7.34201C9.02393 7.36338 9.12029 7.41326 9.17561 7.4489C9.51463 7.67341 10.4586 8.87963 10.7673 9.48187C10.944 9.82574 11.0029 10.0805 10.9476 10.2694C10.8904 10.4725 10.7959 10.5794 10.373 10.9197C10.2034 11.0569 10.0446 11.1977 10.0196 11.2351C9.9554 11.3278 9.90364 11.5095 9.90364 11.6378C9.90545 11.9353 10.0982 12.4752 10.3516 12.8903C10.5478 13.2128 10.8994 13.6262 11.2473 13.9433C11.656 14.3175 12.0164 14.5723 12.4233 14.7736C12.9461 15.0338 13.2655 15.0997 13.4993 14.991C13.5582 14.9643 13.6206 14.9286 13.6403 14.9126C13.6581 14.8966 13.7955 14.7291 13.9454 14.5438C14.2345 14.1803 14.3005 14.1215 14.4986 14.0538C14.7502 13.9683 15.0071 13.9914 15.2659 14.1233C15.4622 14.2249 15.8904 14.4903 16.167 14.6828C16.531 14.9376 17.309 15.5719 17.4144 15.6984C17.5999 15.9264 17.6321 16.2186 17.5071 16.5411C17.3751 16.8814 16.8612 17.5193 16.5025 17.7919C16.1777 18.0378 15.9475 18.1322 15.6442 18.1465C15.3944 18.1589 15.2909 18.1376 14.9715 18.0057C12.4661 16.9741 10.4658 15.4347 8.87759 13.3197C8.04784 12.2151 7.41614 11.0694 6.98429 9.88098C6.7327 9.18789 6.72022 8.88677 6.92719 8.53221C7.01643 8.38255 7.39651 8.01194 7.67309 7.80527C8.13349 7.46316 8.34583 7.33665 8.51535 7.30103C8.63134 7.27608 8.83297 7.29568 8.96146 7.34201ZM13.1638 8.44133C14.247 8.5999 15.0857 9.10236 15.6353 9.91839C15.944 10.3781 16.1367 10.9179 16.2027 11.497C16.2259 11.709 16.2259 12.0957 16.2009 12.1598C16.1777 12.2204 16.1028 12.3024 16.0385 12.3362C15.9689 12.3718 15.8209 12.3683 15.7388 12.3255C15.6013 12.256 15.5603 12.1456 15.5603 11.8462C15.5603 11.3848 15.4407 10.8983 15.2338 10.5206C14.9982 10.0894 14.6556 9.73309 14.2381 9.48542C13.8794 9.27161 13.3494 9.11305 12.8658 9.07385C12.6909 9.05959 12.5946 9.02396 12.5286 8.94735C12.4269 8.83152 12.4161 8.67473 12.5018 8.54468C12.5946 8.40035 12.7373 8.37719 13.1638 8.44133ZM13.5439 9.78654C13.8954 9.86138 14.1649 9.995 14.3951 10.2106C14.6913 10.4903 14.8537 10.8289 14.9251 11.3153C14.9732 11.6324 14.9536 11.7571 14.8412 11.8605C14.7359 11.9567 14.5414 11.9603 14.4236 11.8694C14.338 11.8052 14.3112 11.7375 14.2916 11.554C14.2684 11.3099 14.2256 11.1389 14.1524 10.9803C13.9954 10.6436 13.7188 10.4689 13.2513 10.4119C13.0318 10.3852 12.9657 10.3603 12.8944 10.2765C12.7641 10.1215 12.8141 9.87028 12.9943 9.77763C13.0621 9.74378 13.0907 9.74021 13.2405 9.74912C13.3333 9.75447 13.4708 9.7705 13.5439 9.78654Z" fill="white"/>
<path fill-rule="evenodd" clip-rule="evenodd" d="M22.2222 25H2.77778C1.24365 25 0 23.7563 0 22.2222V2.77778C0 1.24365 1.24365 0 2.77778 0H22.2222C23.7563 0 25 1.24365 25 2.77778V22.2222C25 23.7563 23.7563 25 22.2222 25ZM21.5278 12.5C21.5278 7.51409 17.4859 3.47222 12.5 3.47222C7.51409 3.47222 3.47222 7.51409 3.47222 12.5C3.47222 17.4859 7.51409 21.5278 12.5 21.5278C17.4859 21.5278 21.5278 17.4859 21.5278 12.5Z" fill="white"/>
</g>
<defs>
<clipPath id="clip0_0_331">
<rect width="25" height="25" fill="white"/>
</clipPath>
</defs>
</svg>
