<svg width="25" height="25" viewBox="0 0 25 25" fill="none" xmlns="http://www.w3.org/2000/svg">
<g clip-path="url(#clip0_0_325)">
<path fill-rule="evenodd" clip-rule="evenodd" d="M22.2222 25H2.77778C1.24365 25 0 23.7563 0 22.2222V2.77778C0 1.24365 1.24365 0 2.77778 0H22.2222C23.7563 0 25 1.24365 25 2.77778V22.2222C25 23.7563 23.7563 25 22.2222 25ZM20.0042 7.47791C20.5036 7.98723 20.6667 9.14381 20.6667 9.14381C20.6667 9.14381 20.8333 10.5023 20.8333 11.8603V13.1339C20.8333 14.4924 20.6667 15.8504 20.6667 15.8504C20.6667 15.8504 20.5036 17.007 20.0042 17.5163C19.4331 18.1188 18.7999 18.1811 18.442 18.2163C18.4027 18.2201 18.3666 18.2237 18.3344 18.2276C16.0021 18.3975 12.5 18.4028 12.5 18.4028C12.5 18.4028 8.16667 18.3629 6.83333 18.2339C6.77016 18.222 6.69358 18.2127 6.60686 18.2023C6.18451 18.1513 5.52162 18.0712 4.99531 17.5163C4.49583 17.007 4.33333 15.8504 4.33333 15.8504C4.33333 15.8504 4.16667 14.4924 4.16667 13.1339V11.8603C4.16667 10.5023 4.33333 9.14381 4.33333 9.14381C4.33333 9.14381 4.49583 7.98723 4.99531 7.47791C5.56764 6.87456 6.20143 6.81298 6.55936 6.7782C6.59817 6.77443 6.63373 6.77097 6.66563 6.76718C8.99792 6.59723 12.4964 6.59723 12.4964 6.59723H12.5036C12.5036 6.59723 16.0021 6.59723 18.3344 6.76718C18.3663 6.77098 18.4018 6.77444 18.4407 6.77822C18.7983 6.813 19.4324 6.87465 20.0042 7.47791Z" fill="white"/>
<path d="M10.7786 9.961L10.7792 14.677L15.2818 12.3271L10.7786 9.961Z" fill="white"/>
</g>
<defs>
<clipPath id="clip0_0_325">
<rect width="25" height="25" fill="white"/>
</clipPath>
</defs>
</svg>
